<svg width="540" height="168" viewBox="0 0 540 168" fill="none" xmlns="http://www.w3.org/2000/svg">
<mask id="path-1-outside-1_43_1917" maskUnits="userSpaceOnUse" x="90" y="78" width="450" height="90" fill="black">
<rect fill="white" x="90" y="78" width="450" height="90"/>
<path d="M162 141C162.813 141 163.5 140.719 164.062 140.156C164.687 139.594 165 138.875 165 138C165 137.187 164.687 136.5 164.062 135.938C163.5 135.313 162.813 135 162 135H120C119.125 135 118.406 135.313 117.844 135.938C117.281 136.5 117 137.187 117 138C117 138.875 117.281 139.594 117.844 140.156C118.406 140.719 119.125 141 120 141H162ZM171 123C172.625 123 174.031 122.438 175.219 121.312C176.406 120.125 177 118.688 177 117C177 115.375 176.406 113.969 175.219 112.781C174.031 111.594 172.625 111 171 111H135C133.312 111 131.875 111.594 130.688 112.781C129.562 113.969 129 115.375 129 117C129 118.688 129.562 120.125 130.688 121.312C131.875 122.438 133.312 123 135 123H171ZM111 153C109.312 153 107.875 152.438 106.688 151.312C105.562 150.125 105 148.688 105 147V99.0938C105 97.4062 105.562 95.9688 106.688 94.7812C107.875 93.5937 109.312 93 111 93H177C180.312 93 183.125 94.1875 185.438 96.5625C187.813 98.9375 189 101.75 189 105V123C189 124.688 188.406 126.125 187.219 127.312C186.031 128.438 184.625 129 183 129H180C179.125 129 178.406 129.313 177.844 129.938C177.281 130.5 177 131.187 177 132C177 132.875 177.281 133.594 177.844 134.156C178.406 134.719 179.125 135 180 135H183C184.625 135 186.031 135.594 187.219 136.781C188.406 137.969 189 139.375 189 141C189 144.375 187.813 147.219 185.438 149.531C183.062 151.844 180.25 153 177 153H111Z"/>
<path d="M207 153C203.625 153 200.781 151.844 198.469 149.531C196.156 147.156 195 144.312 195 141V111.094C195 109.406 195.562 107.969 196.688 106.781C197.875 105.594 199.312 105 201 105H213C214.625 105 216.031 105.594 217.219 106.781C218.406 107.969 219 109.375 219 111V129C219 130.688 219.562 132.125 220.688 133.312C221.875 134.438 223.312 135 225 135H249C250.625 135 252.031 134.438 253.219 133.312C254.406 132.125 255 130.688 255 129V111.094C255 109.406 255.562 107.969 256.688 106.781C257.875 105.594 259.312 105 261 105H273C274.625 105 276.031 105.594 277.219 106.781C278.406 107.969 279 109.375 279 111V141C279 144.375 277.813 147.219 275.438 149.531C273.062 151.844 270.25 153 267 153H207Z"/>
<path d="M291 153C289.312 153 287.875 152.438 286.688 151.312C285.562 150.125 285 148.688 285 147V111.094C285 109.406 285.562 107.969 286.688 106.781C287.875 105.594 289.312 105 291 105H303C304.625 105 306.031 105.594 307.219 106.781C308.406 107.969 309 109.375 309 111C309 112.688 309.562 114.125 310.688 115.312C311.875 116.438 313.312 117 315 117C316.625 117 318.031 116.438 319.219 115.312C320.406 114.125 321 112.688 321 111V111.094C321 109.406 321.562 107.969 322.688 106.781C323.875 105.594 325.312 105 327 105H345C348.312 105 351.125 106.187 353.438 108.562C355.813 110.938 357 113.75 357 117V123C357 124.688 356.406 126.125 355.219 127.312C354.031 128.438 352.625 129 351 129H303C301.312 129 299.875 129.594 298.688 130.781C297.562 131.969 297 133.375 297 135V147C297 148.688 296.406 150.125 295.219 151.312C294.031 152.438 292.625 153 291 153Z"/>
<path d="M369 153C367.312 153 365.875 152.438 364.688 151.312C363.562 150.125 363 148.688 363 147C363 145.375 363.562 143.969 364.688 142.781C365.875 141.594 367.312 141 369 141H420C420.813 141 421.5 140.719 422.062 140.156C422.687 139.594 423 138.875 423 138C423 137.187 422.687 136.5 422.062 135.938C421.5 135.313 420.813 135 420 135H375C371.625 135 368.781 133.844 366.469 131.531C364.156 129.156 363 126.312 363 123V117C363 113.688 364.156 110.875 366.469 108.562C368.844 106.187 371.688 105 375 105H441C442.625 105 444.031 105.594 445.219 106.781C446.406 107.969 447 109.375 447 111C447 112.688 446.406 114.125 445.219 115.312C444.031 116.438 442.625 117 441 117H390C389.125 117 388.406 117.313 387.844 117.938C387.281 118.5 387 119.187 387 120C387 120.875 387.281 121.594 387.844 122.156C388.406 122.719 389.125 123 390 123H435C438.312 123 441.125 124.187 443.438 126.562C445.813 128.938 447 131.75 447 135V141C447 144.375 445.813 147.219 443.438 149.531C441.062 151.844 438.25 153 435 153H369Z"/>
<path d="M477 153C473.625 153 470.781 151.844 468.469 149.531C466.156 147.156 465 144.312 465 141V123C465 121.375 464.406 119.969 463.219 118.781C462.031 117.594 460.625 117 459 117C457.312 117 455.875 116.438 454.688 115.312C453.562 114.125 453 112.688 453 111C453 109.375 453.562 107.969 454.688 106.781C455.875 105.594 457.312 105 459 105C460.625 105 462.031 104.438 463.219 103.312C464.406 102.125 465 100.688 465 99V99.0938C465 97.4062 465.562 95.9688 466.688 94.7812C467.875 93.5937 469.312 93 471 93H483C484.625 93 486.031 93.5937 487.219 94.7812C488.406 95.9688 489 97.375 489 99C489 100.688 489.562 102.125 490.688 103.312C491.875 104.438 493.312 105 495 105H519C520.625 105 522.031 105.594 523.219 106.781C524.406 107.969 525 109.375 525 111C525 112.688 524.406 114.125 523.219 115.312C522.031 116.438 520.625 117 519 117H483C481.312 117 479.875 117.594 478.688 118.781C477.562 119.969 477 121.375 477 123C477 124.688 477.562 126.125 478.688 127.312C479.875 128.438 481.312 129 483 129H519C520.625 129 522.031 129.594 523.219 130.781C524.406 131.969 525 133.375 525 135V141C525 144.375 523.813 147.219 521.438 149.531C519.062 151.844 516.25 153 513 153H477Z"/>
</mask>
<path d="M162 141C162.813 141 163.5 140.719 164.062 140.156C164.687 139.594 165 138.875 165 138C165 137.187 164.687 136.5 164.062 135.938C163.5 135.313 162.813 135 162 135H120C119.125 135 118.406 135.313 117.844 135.938C117.281 136.5 117 137.187 117 138C117 138.875 117.281 139.594 117.844 140.156C118.406 140.719 119.125 141 120 141H162ZM171 123C172.625 123 174.031 122.438 175.219 121.312C176.406 120.125 177 118.688 177 117C177 115.375 176.406 113.969 175.219 112.781C174.031 111.594 172.625 111 171 111H135C133.312 111 131.875 111.594 130.688 112.781C129.562 113.969 129 115.375 129 117C129 118.688 129.562 120.125 130.688 121.312C131.875 122.438 133.312 123 135 123H171ZM111 153C109.312 153 107.875 152.438 106.688 151.312C105.562 150.125 105 148.688 105 147V99.0938C105 97.4062 105.562 95.9688 106.688 94.7812C107.875 93.5937 109.312 93 111 93H177C180.312 93 183.125 94.1875 185.438 96.5625C187.813 98.9375 189 101.75 189 105V123C189 124.688 188.406 126.125 187.219 127.312C186.031 128.438 184.625 129 183 129H180C179.125 129 178.406 129.313 177.844 129.938C177.281 130.5 177 131.187 177 132C177 132.875 177.281 133.594 177.844 134.156C178.406 134.719 179.125 135 180 135H183C184.625 135 186.031 135.594 187.219 136.781C188.406 137.969 189 139.375 189 141C189 144.375 187.813 147.219 185.438 149.531C183.062 151.844 180.25 153 177 153H111Z" fill="#EC6F9D"/>
<path d="M207 153C203.625 153 200.781 151.844 198.469 149.531C196.156 147.156 195 144.312 195 141V111.094C195 109.406 195.562 107.969 196.688 106.781C197.875 105.594 199.312 105 201 105H213C214.625 105 216.031 105.594 217.219 106.781C218.406 107.969 219 109.375 219 111V129C219 130.688 219.562 132.125 220.688 133.312C221.875 134.438 223.312 135 225 135H249C250.625 135 252.031 134.438 253.219 133.312C254.406 132.125 255 130.688 255 129V111.094C255 109.406 255.562 107.969 256.688 106.781C257.875 105.594 259.312 105 261 105H273C274.625 105 276.031 105.594 277.219 106.781C278.406 107.969 279 109.375 279 111V141C279 144.375 277.813 147.219 275.438 149.531C273.062 151.844 270.25 153 267 153H207Z" fill="#EC6F9D"/>
<path d="M291 153C289.312 153 287.875 152.438 286.688 151.312C285.562 150.125 285 148.688 285 147V111.094C285 109.406 285.562 107.969 286.688 106.781C287.875 105.594 289.312 105 291 105H303C304.625 105 306.031 105.594 307.219 106.781C308.406 107.969 309 109.375 309 111C309 112.688 309.562 114.125 310.688 115.312C311.875 116.438 313.312 117 315 117C316.625 117 318.031 116.438 319.219 115.312C320.406 114.125 321 112.688 321 111V111.094C321 109.406 321.562 107.969 322.688 106.781C323.875 105.594 325.312 105 327 105H345C348.312 105 351.125 106.187 353.438 108.562C355.813 110.938 357 113.75 357 117V123C357 124.688 356.406 126.125 355.219 127.312C354.031 128.438 352.625 129 351 129H303C301.312 129 299.875 129.594 298.688 130.781C297.562 131.969 297 133.375 297 135V147C297 148.688 296.406 150.125 295.219 151.312C294.031 152.438 292.625 153 291 153Z" fill="#EC6F9D"/>
<path d="M369 153C367.312 153 365.875 152.438 364.688 151.312C363.562 150.125 363 148.688 363 147C363 145.375 363.562 143.969 364.688 142.781C365.875 141.594 367.312 141 369 141H420C420.813 141 421.5 140.719 422.062 140.156C422.687 139.594 423 138.875 423 138C423 137.187 422.687 136.5 422.062 135.938C421.5 135.313 420.813 135 420 135H375C371.625 135 368.781 133.844 366.469 131.531C364.156 129.156 363 126.312 363 123V117C363 113.688 364.156 110.875 366.469 108.562C368.844 106.187 371.688 105 375 105H441C442.625 105 444.031 105.594 445.219 106.781C446.406 107.969 447 109.375 447 111C447 112.688 446.406 114.125 445.219 115.312C444.031 116.438 442.625 117 441 117H390C389.125 117 388.406 117.313 387.844 117.938C387.281 118.5 387 119.187 387 120C387 120.875 387.281 121.594 387.844 122.156C388.406 122.719 389.125 123 390 123H435C438.312 123 441.125 124.187 443.438 126.562C445.813 128.938 447 131.75 447 135V141C447 144.375 445.813 147.219 443.438 149.531C441.062 151.844 438.25 153 435 153H369Z" fill="#EC6F9D"/>
<path d="M477 153C473.625 153 470.781 151.844 468.469 149.531C466.156 147.156 465 144.312 465 141V123C465 121.375 464.406 119.969 463.219 118.781C462.031 117.594 460.625 117 459 117C457.312 117 455.875 116.438 454.688 115.312C453.562 114.125 453 112.688 453 111C453 109.375 453.562 107.969 454.688 106.781C455.875 105.594 457.312 105 459 105C460.625 105 462.031 104.438 463.219 103.312C464.406 102.125 465 100.688 465 99V99.0938C465 97.4062 465.562 95.9688 466.688 94.7812C467.875 93.5937 469.312 93 471 93H483C484.625 93 486.031 93.5937 487.219 94.7812C488.406 95.9688 489 97.375 489 99C489 100.688 489.562 102.125 490.688 103.312C491.875 104.438 493.312 105 495 105H519C520.625 105 522.031 105.594 523.219 106.781C524.406 107.969 525 109.375 525 111C525 112.688 524.406 114.125 523.219 115.312C522.031 116.438 520.625 117 519 117H483C481.312 117 479.875 117.594 478.688 118.781C477.562 119.969 477 121.375 477 123C477 124.688 477.562 126.125 478.688 127.312C479.875 128.438 481.312 129 483 129H519C520.625 129 522.031 129.594 523.219 130.781C524.406 131.969 525 133.375 525 135V141C525 144.375 523.813 147.219 521.438 149.531C519.062 151.844 516.25 153 513 153H477Z" fill="#EC6F9D"/>
<path d="M162 141C162.813 141 163.5 140.719 164.062 140.156C164.687 139.594 165 138.875 165 138C165 137.187 164.687 136.5 164.062 135.938C163.5 135.313 162.813 135 162 135H120C119.125 135 118.406 135.313 117.844 135.938C117.281 136.5 117 137.187 117 138C117 138.875 117.281 139.594 117.844 140.156C118.406 140.719 119.125 141 120 141H162ZM171 123C172.625 123 174.031 122.438 175.219 121.312C176.406 120.125 177 118.688 177 117C177 115.375 176.406 113.969 175.219 112.781C174.031 111.594 172.625 111 171 111H135C133.312 111 131.875 111.594 130.688 112.781C129.562 113.969 129 115.375 129 117C129 118.688 129.562 120.125 130.688 121.312C131.875 122.438 133.312 123 135 123H171ZM111 153C109.312 153 107.875 152.438 106.688 151.312C105.562 150.125 105 148.688 105 147V99.0938C105 97.4062 105.562 95.9688 106.688 94.7812C107.875 93.5937 109.312 93 111 93H177C180.312 93 183.125 94.1875 185.438 96.5625C187.813 98.9375 189 101.75 189 105V123C189 124.688 188.406 126.125 187.219 127.312C186.031 128.438 184.625 129 183 129H180C179.125 129 178.406 129.313 177.844 129.938C177.281 130.5 177 131.187 177 132C177 132.875 177.281 133.594 177.844 134.156C178.406 134.719 179.125 135 180 135H183C184.625 135 186.031 135.594 187.219 136.781C188.406 137.969 189 139.375 189 141C189 144.375 187.813 147.219 185.438 149.531C183.062 151.844 180.25 153 177 153H111Z" stroke="white" stroke-width="30" mask="url(#path-1-outside-1_43_1917)"/>
<path d="M207 153C203.625 153 200.781 151.844 198.469 149.531C196.156 147.156 195 144.312 195 141V111.094C195 109.406 195.562 107.969 196.688 106.781C197.875 105.594 199.312 105 201 105H213C214.625 105 216.031 105.594 217.219 106.781C218.406 107.969 219 109.375 219 111V129C219 130.688 219.562 132.125 220.688 133.312C221.875 134.438 223.312 135 225 135H249C250.625 135 252.031 134.438 253.219 133.312C254.406 132.125 255 130.688 255 129V111.094C255 109.406 255.562 107.969 256.688 106.781C257.875 105.594 259.312 105 261 105H273C274.625 105 276.031 105.594 277.219 106.781C278.406 107.969 279 109.375 279 111V141C279 144.375 277.813 147.219 275.438 149.531C273.062 151.844 270.25 153 267 153H207Z" stroke="white" stroke-width="30" mask="url(#path-1-outside-1_43_1917)"/>
<path d="M291 153C289.312 153 287.875 152.438 286.688 151.312C285.562 150.125 285 148.688 285 147V111.094C285 109.406 285.562 107.969 286.688 106.781C287.875 105.594 289.312 105 291 105H303C304.625 105 306.031 105.594 307.219 106.781C308.406 107.969 309 109.375 309 111C309 112.688 309.562 114.125 310.688 115.312C311.875 116.438 313.312 117 315 117C316.625 117 318.031 116.438 319.219 115.312C320.406 114.125 321 112.688 321 111V111.094C321 109.406 321.562 107.969 322.688 106.781C323.875 105.594 325.312 105 327 105H345C348.312 105 351.125 106.187 353.438 108.562C355.813 110.938 357 113.75 357 117V123C357 124.688 356.406 126.125 355.219 127.312C354.031 128.438 352.625 129 351 129H303C301.312 129 299.875 129.594 298.688 130.781C297.562 131.969 297 133.375 297 135V147C297 148.688 296.406 150.125 295.219 151.312C294.031 152.438 292.625 153 291 153Z" stroke="white" stroke-width="30" mask="url(#path-1-outside-1_43_1917)"/>
<path d="M369 153C367.312 153 365.875 152.438 364.688 151.312C363.562 150.125 363 148.688 363 147C363 145.375 363.562 143.969 364.688 142.781C365.875 141.594 367.312 141 369 141H420C420.813 141 421.5 140.719 422.062 140.156C422.687 139.594 423 138.875 423 138C423 137.187 422.687 136.5 422.062 135.938C421.5 135.313 420.813 135 420 135H375C371.625 135 368.781 133.844 366.469 131.531C364.156 129.156 363 126.312 363 123V117C363 113.688 364.156 110.875 366.469 108.562C368.844 106.187 371.688 105 375 105H441C442.625 105 444.031 105.594 445.219 106.781C446.406 107.969 447 109.375 447 111C447 112.688 446.406 114.125 445.219 115.312C444.031 116.438 442.625 117 441 117H390C389.125 117 388.406 117.313 387.844 117.938C387.281 118.5 387 119.187 387 120C387 120.875 387.281 121.594 387.844 122.156C388.406 122.719 389.125 123 390 123H435C438.312 123 441.125 124.187 443.438 126.562C445.813 128.938 447 131.75 447 135V141C447 144.375 445.813 147.219 443.438 149.531C441.062 151.844 438.25 153 435 153H369Z" stroke="white" stroke-width="30" mask="url(#path-1-outside-1_43_1917)"/>
<path d="M477 153C473.625 153 470.781 151.844 468.469 149.531C466.156 147.156 465 144.312 465 141V123C465 121.375 464.406 119.969 463.219 118.781C462.031 117.594 460.625 117 459 117C457.312 117 455.875 116.438 454.688 115.312C453.562 114.125 453 112.688 453 111C453 109.375 453.562 107.969 454.688 106.781C455.875 105.594 457.312 105 459 105C460.625 105 462.031 104.438 463.219 103.312C464.406 102.125 465 100.688 465 99V99.0938C465 97.4062 465.562 95.9688 466.688 94.7812C467.875 93.5937 469.312 93 471 93H483C484.625 93 486.031 93.5937 487.219 94.7812C488.406 95.9688 489 97.375 489 99C489 100.688 489.562 102.125 490.688 103.312C491.875 104.438 493.312 105 495 105H519C520.625 105 522.031 105.594 523.219 106.781C524.406 107.969 525 109.375 525 111C525 112.688 524.406 114.125 523.219 115.312C522.031 116.438 520.625 117 519 117H483C481.312 117 479.875 117.594 478.688 118.781C477.562 119.969 477 121.375 477 123C477 124.688 477.562 126.125 478.688 127.312C479.875 128.438 481.312 129 483 129H519C520.625 129 522.031 129.594 523.219 130.781C524.406 131.969 525 133.375 525 135V141C525 144.375 523.813 147.219 521.438 149.531C519.062 151.844 516.25 153 513 153H477Z" stroke="white" stroke-width="30" mask="url(#path-1-outside-1_43_1917)"/>
<mask id="path-2-outside-2_43_1917" maskUnits="userSpaceOnUse" x="96" y="84" width="438" height="78" fill="black">
<rect fill="white" x="96" y="84" width="438" height="78"/>
<path d="M162 141C162.813 141 163.5 140.719 164.062 140.156C164.687 139.594 165 138.875 165 138C165 137.187 164.687 136.5 164.062 135.938C163.5 135.313 162.813 135 162 135H120C119.125 135 118.406 135.313 117.844 135.938C117.281 136.5 117 137.187 117 138C117 138.875 117.281 139.594 117.844 140.156C118.406 140.719 119.125 141 120 141H162ZM171 123C172.625 123 174.031 122.438 175.219 121.312C176.406 120.125 177 118.688 177 117C177 115.375 176.406 113.969 175.219 112.781C174.031 111.594 172.625 111 171 111H135C133.312 111 131.875 111.594 130.688 112.781C129.562 113.969 129 115.375 129 117C129 118.688 129.562 120.125 130.688 121.312C131.875 122.438 133.312 123 135 123H171ZM111 153C109.312 153 107.875 152.438 106.688 151.312C105.562 150.125 105 148.688 105 147V99.0938C105 97.4062 105.562 95.9688 106.688 94.7812C107.875 93.5937 109.312 93 111 93H177C180.312 93 183.125 94.1875 185.438 96.5625C187.813 98.9375 189 101.75 189 105V123C189 124.688 188.406 126.125 187.219 127.312C186.031 128.438 184.625 129 183 129H180C179.125 129 178.406 129.313 177.844 129.938C177.281 130.5 177 131.187 177 132C177 132.875 177.281 133.594 177.844 134.156C178.406 134.719 179.125 135 180 135H183C184.625 135 186.031 135.594 187.219 136.781C188.406 137.969 189 139.375 189 141C189 144.375 187.813 147.219 185.438 149.531C183.062 151.844 180.25 153 177 153H111Z"/>
<path d="M207 153C203.625 153 200.781 151.844 198.469 149.531C196.156 147.156 195 144.312 195 141V111.094C195 109.406 195.562 107.969 196.688 106.781C197.875 105.594 199.312 105 201 105H213C214.625 105 216.031 105.594 217.219 106.781C218.406 107.969 219 109.375 219 111V129C219 130.688 219.562 132.125 220.688 133.312C221.875 134.438 223.312 135 225 135H249C250.625 135 252.031 134.438 253.219 133.312C254.406 132.125 255 130.688 255 129V111.094C255 109.406 255.562 107.969 256.688 106.781C257.875 105.594 259.312 105 261 105H273C274.625 105 276.031 105.594 277.219 106.781C278.406 107.969 279 109.375 279 111V141C279 144.375 277.813 147.219 275.438 149.531C273.062 151.844 270.25 153 267 153H207Z"/>
<path d="M291 153C289.312 153 287.875 152.438 286.688 151.312C285.562 150.125 285 148.688 285 147V111.094C285 109.406 285.562 107.969 286.688 106.781C287.875 105.594 289.312 105 291 105H303C304.625 105 306.031 105.594 307.219 106.781C308.406 107.969 309 109.375 309 111C309 112.688 309.562 114.125 310.688 115.312C311.875 116.438 313.312 117 315 117C316.625 117 318.031 116.438 319.219 115.312C320.406 114.125 321 112.688 321 111V111.094C321 109.406 321.562 107.969 322.688 106.781C323.875 105.594 325.312 105 327 105H345C348.312 105 351.125 106.187 353.438 108.562C355.813 110.938 357 113.75 357 117V123C357 124.688 356.406 126.125 355.219 127.312C354.031 128.438 352.625 129 351 129H303C301.312 129 299.875 129.594 298.688 130.781C297.562 131.969 297 133.375 297 135V147C297 148.688 296.406 150.125 295.219 151.312C294.031 152.438 292.625 153 291 153Z"/>
<path d="M369 153C367.312 153 365.875 152.438 364.688 151.312C363.562 150.125 363 148.688 363 147C363 145.375 363.562 143.969 364.688 142.781C365.875 141.594 367.312 141 369 141H420C420.813 141 421.5 140.719 422.062 140.156C422.687 139.594 423 138.875 423 138C423 137.187 422.687 136.5 422.062 135.938C421.5 135.313 420.813 135 420 135H375C371.625 135 368.781 133.844 366.469 131.531C364.156 129.156 363 126.312 363 123V117C363 113.688 364.156 110.875 366.469 108.562C368.844 106.187 371.688 105 375 105H441C442.625 105 444.031 105.594 445.219 106.781C446.406 107.969 447 109.375 447 111C447 112.688 446.406 114.125 445.219 115.312C444.031 116.438 442.625 117 441 117H390C389.125 117 388.406 117.313 387.844 117.938C387.281 118.5 387 119.187 387 120C387 120.875 387.281 121.594 387.844 122.156C388.406 122.719 389.125 123 390 123H435C438.312 123 441.125 124.187 443.438 126.562C445.813 128.938 447 131.75 447 135V141C447 144.375 445.813 147.219 443.438 149.531C441.062 151.844 438.25 153 435 153H369Z"/>
<path d="M477 153C473.625 153 470.781 151.844 468.469 149.531C466.156 147.156 465 144.312 465 141V123C465 121.375 464.406 119.969 463.219 118.781C462.031 117.594 460.625 117 459 117C457.312 117 455.875 116.438 454.688 115.312C453.562 114.125 453 112.688 453 111C453 109.375 453.562 107.969 454.688 106.781C455.875 105.594 457.312 105 459 105C460.625 105 462.031 104.438 463.219 103.312C464.406 102.125 465 100.688 465 99V99.0938C465 97.4062 465.562 95.9688 466.688 94.7812C467.875 93.5937 469.312 93 471 93H483C484.625 93 486.031 93.5937 487.219 94.7812C488.406 95.9688 489 97.375 489 99C489 100.688 489.562 102.125 490.688 103.312C491.875 104.438 493.312 105 495 105H519C520.625 105 522.031 105.594 523.219 106.781C524.406 107.969 525 109.375 525 111C525 112.688 524.406 114.125 523.219 115.312C522.031 116.438 520.625 117 519 117H483C481.312 117 479.875 117.594 478.688 118.781C477.562 119.969 477 121.375 477 123C477 124.688 477.562 126.125 478.688 127.312C479.875 128.438 481.312 129 483 129H519C520.625 129 522.031 129.594 523.219 130.781C524.406 131.969 525 133.375 525 135V141C525 144.375 523.813 147.219 521.438 149.531C519.062 151.844 516.25 153 513 153H477Z"/>
</mask>
<path d="M162 141C162.813 141 163.5 140.719 164.062 140.156C164.687 139.594 165 138.875 165 138C165 137.187 164.687 136.5 164.062 135.938C163.5 135.313 162.813 135 162 135H120C119.125 135 118.406 135.313 117.844 135.938C117.281 136.5 117 137.187 117 138C117 138.875 117.281 139.594 117.844 140.156C118.406 140.719 119.125 141 120 141H162ZM171 123C172.625 123 174.031 122.438 175.219 121.312C176.406 120.125 177 118.688 177 117C177 115.375 176.406 113.969 175.219 112.781C174.031 111.594 172.625 111 171 111H135C133.312 111 131.875 111.594 130.688 112.781C129.562 113.969 129 115.375 129 117C129 118.688 129.562 120.125 130.688 121.312C131.875 122.438 133.312 123 135 123H171ZM111 153C109.312 153 107.875 152.438 106.688 151.312C105.562 150.125 105 148.688 105 147V99.0938C105 97.4062 105.562 95.9688 106.688 94.7812C107.875 93.5937 109.312 93 111 93H177C180.312 93 183.125 94.1875 185.438 96.5625C187.813 98.9375 189 101.75 189 105V123C189 124.688 188.406 126.125 187.219 127.312C186.031 128.438 184.625 129 183 129H180C179.125 129 178.406 129.313 177.844 129.938C177.281 130.5 177 131.187 177 132C177 132.875 177.281 133.594 177.844 134.156C178.406 134.719 179.125 135 180 135H183C184.625 135 186.031 135.594 187.219 136.781C188.406 137.969 189 139.375 189 141C189 144.375 187.813 147.219 185.438 149.531C183.062 151.844 180.25 153 177 153H111Z" fill="#EC6F9D"/>
<path d="M207 153C203.625 153 200.781 151.844 198.469 149.531C196.156 147.156 195 144.312 195 141V111.094C195 109.406 195.562 107.969 196.688 106.781C197.875 105.594 199.312 105 201 105H213C214.625 105 216.031 105.594 217.219 106.781C218.406 107.969 219 109.375 219 111V129C219 130.688 219.562 132.125 220.688 133.312C221.875 134.438 223.312 135 225 135H249C250.625 135 252.031 134.438 253.219 133.312C254.406 132.125 255 130.688 255 129V111.094C255 109.406 255.562 107.969 256.688 106.781C257.875 105.594 259.312 105 261 105H273C274.625 105 276.031 105.594 277.219 106.781C278.406 107.969 279 109.375 279 111V141C279 144.375 277.813 147.219 275.438 149.531C273.062 151.844 270.25 153 267 153H207Z" fill="#EC6F9D"/>
<path d="M291 153C289.312 153 287.875 152.438 286.688 151.312C285.562 150.125 285 148.688 285 147V111.094C285 109.406 285.562 107.969 286.688 106.781C287.875 105.594 289.312 105 291 105H303C304.625 105 306.031 105.594 307.219 106.781C308.406 107.969 309 109.375 309 111C309 112.688 309.562 114.125 310.688 115.312C311.875 116.438 313.312 117 315 117C316.625 117 318.031 116.438 319.219 115.312C320.406 114.125 321 112.688 321 111V111.094C321 109.406 321.562 107.969 322.688 106.781C323.875 105.594 325.312 105 327 105H345C348.312 105 351.125 106.187 353.438 108.562C355.813 110.938 357 113.75 357 117V123C357 124.688 356.406 126.125 355.219 127.312C354.031 128.438 352.625 129 351 129H303C301.312 129 299.875 129.594 298.688 130.781C297.562 131.969 297 133.375 297 135V147C297 148.688 296.406 150.125 295.219 151.312C294.031 152.438 292.625 153 291 153Z" fill="#EC6F9D"/>
<path d="M369 153C367.312 153 365.875 152.438 364.688 151.312C363.562 150.125 363 148.688 363 147C363 145.375 363.562 143.969 364.688 142.781C365.875 141.594 367.312 141 369 141H420C420.813 141 421.5 140.719 422.062 140.156C422.687 139.594 423 138.875 423 138C423 137.187 422.687 136.5 422.062 135.938C421.5 135.313 420.813 135 420 135H375C371.625 135 368.781 133.844 366.469 131.531C364.156 129.156 363 126.312 363 123V117C363 113.688 364.156 110.875 366.469 108.562C368.844 106.187 371.688 105 375 105H441C442.625 105 444.031 105.594 445.219 106.781C446.406 107.969 447 109.375 447 111C447 112.688 446.406 114.125 445.219 115.312C444.031 116.438 442.625 117 441 117H390C389.125 117 388.406 117.313 387.844 117.938C387.281 118.5 387 119.187 387 120C387 120.875 387.281 121.594 387.844 122.156C388.406 122.719 389.125 123 390 123H435C438.312 123 441.125 124.187 443.438 126.562C445.813 128.938 447 131.75 447 135V141C447 144.375 445.813 147.219 443.438 149.531C441.062 151.844 438.25 153 435 153H369Z" fill="#EC6F9D"/>
<path d="M477 153C473.625 153 470.781 151.844 468.469 149.531C466.156 147.156 465 144.312 465 141V123C465 121.375 464.406 119.969 463.219 118.781C462.031 117.594 460.625 117 459 117C457.312 117 455.875 116.438 454.688 115.312C453.562 114.125 453 112.688 453 111C453 109.375 453.562 107.969 454.688 106.781C455.875 105.594 457.312 105 459 105C460.625 105 462.031 104.438 463.219 103.312C464.406 102.125 465 100.688 465 99V99.0938C465 97.4062 465.562 95.9688 466.688 94.7812C467.875 93.5937 469.312 93 471 93H483C484.625 93 486.031 93.5937 487.219 94.7812C488.406 95.9688 489 97.375 489 99C489 100.688 489.562 102.125 490.688 103.312C491.875 104.438 493.312 105 495 105H519C520.625 105 522.031 105.594 523.219 106.781C524.406 107.969 525 109.375 525 111C525 112.688 524.406 114.125 523.219 115.312C522.031 116.438 520.625 117 519 117H483C481.312 117 479.875 117.594 478.688 118.781C477.562 119.969 477 121.375 477 123C477 124.688 477.562 126.125 478.688 127.312C479.875 128.438 481.312 129 483 129H519C520.625 129 522.031 129.594 523.219 130.781C524.406 131.969 525 133.375 525 135V141C525 144.375 523.813 147.219 521.438 149.531C519.062 151.844 516.25 153 513 153H477Z" fill="#EC6F9D"/>
<path d="M162 141C162.813 141 163.5 140.719 164.062 140.156C164.687 139.594 165 138.875 165 138C165 137.187 164.687 136.5 164.062 135.938C163.5 135.313 162.813 135 162 135H120C119.125 135 118.406 135.313 117.844 135.938C117.281 136.5 117 137.187 117 138C117 138.875 117.281 139.594 117.844 140.156C118.406 140.719 119.125 141 120 141H162ZM171 123C172.625 123 174.031 122.438 175.219 121.312C176.406 120.125 177 118.688 177 117C177 115.375 176.406 113.969 175.219 112.781C174.031 111.594 172.625 111 171 111H135C133.312 111 131.875 111.594 130.688 112.781C129.562 113.969 129 115.375 129 117C129 118.688 129.562 120.125 130.688 121.312C131.875 122.438 133.312 123 135 123H171ZM111 153C109.312 153 107.875 152.438 106.688 151.312C105.562 150.125 105 148.688 105 147V99.0938C105 97.4062 105.562 95.9688 106.688 94.7812C107.875 93.5937 109.312 93 111 93H177C180.312 93 183.125 94.1875 185.438 96.5625C187.813 98.9375 189 101.75 189 105V123C189 124.688 188.406 126.125 187.219 127.312C186.031 128.438 184.625 129 183 129H180C179.125 129 178.406 129.313 177.844 129.938C177.281 130.5 177 131.187 177 132C177 132.875 177.281 133.594 177.844 134.156C178.406 134.719 179.125 135 180 135H183C184.625 135 186.031 135.594 187.219 136.781C188.406 137.969 189 139.375 189 141C189 144.375 187.813 147.219 185.438 149.531C183.062 151.844 180.25 153 177 153H111Z" stroke="#44082A" stroke-width="18" mask="url(#path-2-outside-2_43_1917)"/>
<path d="M207 153C203.625 153 200.781 151.844 198.469 149.531C196.156 147.156 195 144.312 195 141V111.094C195 109.406 195.562 107.969 196.688 106.781C197.875 105.594 199.312 105 201 105H213C214.625 105 216.031 105.594 217.219 106.781C218.406 107.969 219 109.375 219 111V129C219 130.688 219.562 132.125 220.688 133.312C221.875 134.438 223.312 135 225 135H249C250.625 135 252.031 134.438 253.219 133.312C254.406 132.125 255 130.688 255 129V111.094C255 109.406 255.562 107.969 256.688 106.781C257.875 105.594 259.312 105 261 105H273C274.625 105 276.031 105.594 277.219 106.781C278.406 107.969 279 109.375 279 111V141C279 144.375 277.813 147.219 275.438 149.531C273.062 151.844 270.25 153 267 153H207Z" stroke="#44082A" stroke-width="18" mask="url(#path-2-outside-2_43_1917)"/>
<path d="M291 153C289.312 153 287.875 152.438 286.688 151.312C285.562 150.125 285 148.688 285 147V111.094C285 109.406 285.562 107.969 286.688 106.781C287.875 105.594 289.312 105 291 105H303C304.625 105 306.031 105.594 307.219 106.781C308.406 107.969 309 109.375 309 111C309 112.688 309.562 114.125 310.688 115.312C311.875 116.438 313.312 117 315 117C316.625 117 318.031 116.438 319.219 115.312C320.406 114.125 321 112.688 321 111V111.094C321 109.406 321.562 107.969 322.688 106.781C323.875 105.594 325.312 105 327 105H345C348.312 105 351.125 106.187 353.438 108.562C355.813 110.938 357 113.75 357 117V123C357 124.688 356.406 126.125 355.219 127.312C354.031 128.438 352.625 129 351 129H303C301.312 129 299.875 129.594 298.688 130.781C297.562 131.969 297 133.375 297 135V147C297 148.688 296.406 150.125 295.219 151.312C294.031 152.438 292.625 153 291 153Z" stroke="#44082A" stroke-width="18" mask="url(#path-2-outside-2_43_1917)"/>
<path d="M369 153C367.312 153 365.875 152.438 364.688 151.312C363.562 150.125 363 148.688 363 147C363 145.375 363.562 143.969 364.688 142.781C365.875 141.594 367.312 141 369 141H420C420.813 141 421.5 140.719 422.062 140.156C422.687 139.594 423 138.875 423 138C423 137.187 422.687 136.5 422.062 135.938C421.5 135.313 420.813 135 420 135H375C371.625 135 368.781 133.844 366.469 131.531C364.156 129.156 363 126.312 363 123V117C363 113.688 364.156 110.875 366.469 108.562C368.844 106.187 371.688 105 375 105H441C442.625 105 444.031 105.594 445.219 106.781C446.406 107.969 447 109.375 447 111C447 112.688 446.406 114.125 445.219 115.312C444.031 116.438 442.625 117 441 117H390C389.125 117 388.406 117.313 387.844 117.938C387.281 118.5 387 119.187 387 120C387 120.875 387.281 121.594 387.844 122.156C388.406 122.719 389.125 123 390 123H435C438.312 123 441.125 124.187 443.438 126.562C445.813 128.938 447 131.75 447 135V141C447 144.375 445.813 147.219 443.438 149.531C441.062 151.844 438.25 153 435 153H369Z" stroke="#44082A" stroke-width="18" mask="url(#path-2-outside-2_43_1917)"/>
<path d="M477 153C473.625 153 470.781 151.844 468.469 149.531C466.156 147.156 465 144.312 465 141V123C465 121.375 464.406 119.969 463.219 118.781C462.031 117.594 460.625 117 459 117C457.312 117 455.875 116.438 454.688 115.312C453.562 114.125 453 112.688 453 111C453 109.375 453.562 107.969 454.688 106.781C455.875 105.594 457.312 105 459 105C460.625 105 462.031 104.438 463.219 103.312C464.406 102.125 465 100.688 465 99V99.0938C465 97.4062 465.562 95.9688 466.688 94.7812C467.875 93.5937 469.312 93 471 93H483C484.625 93 486.031 93.5937 487.219 94.7812C488.406 95.9688 489 97.375 489 99C489 100.688 489.562 102.125 490.688 103.312C491.875 104.438 493.312 105 495 105H519C520.625 105 522.031 105.594 523.219 106.781C524.406 107.969 525 109.375 525 111C525 112.688 524.406 114.125 523.219 115.312C522.031 116.438 520.625 117 519 117H483C481.312 117 479.875 117.594 478.688 118.781C477.562 119.969 477 121.375 477 123C477 124.688 477.562 126.125 478.688 127.312C479.875 128.438 481.312 129 483 129H519C520.625 129 522.031 129.594 523.219 130.781C524.406 131.969 525 133.375 525 135V141C525 144.375 523.813 147.219 521.438 149.531C519.062 151.844 516.25 153 513 153H477Z" stroke="#44082A" stroke-width="18" mask="url(#path-2-outside-2_43_1917)"/>
<mask id="path-3-outside-3_43_1917" maskUnits="userSpaceOnUse" x="0" y="0" width="390" height="90" fill="black">
<rect fill="white" width="390" height="90"/>
<path d="M27 75C23.625 75 20.7812 73.8437 18.4688 71.5312C16.1563 69.1562 15 66.3125 15 63V27C15 23.6875 16.1563 20.875 18.4688 18.5625C20.8438 16.1875 23.6875 15 27 15H87C90.3125 15 93.125 16.1875 95.4375 18.5625C97.8125 20.9375 99 23.75 99 27C99 30.375 97.8125 33.2188 95.4375 35.5312C93.0625 37.8437 90.25 39 87 39H30C29.125 39 28.4062 39.3125 27.8438 39.9375C27.2812 40.5 27 41.1875 27 42C27 42.875 27.2812 43.5938 27.8438 44.1562C28.4062 44.7188 29.125 45 30 45H93C94.625 45 96.0312 45.5937 97.2188 46.7812C98.4063 47.9688 99 49.375 99 51C99 52.6875 98.4063 54.125 97.2188 55.3125C96.0312 56.4375 94.625 57 93 57H45C43.3125 57 41.875 57.5937 40.6875 58.7812C39.5625 59.9688 39 61.375 39 63V69C39 70.6875 38.4063 72.125 37.2188 73.3125C36.0312 74.4375 34.625 75 33 75H27Z"/>
<path d="M111 75C109.312 75 107.875 74.4375 106.688 73.3125C105.562 72.125 105 70.6875 105 69V33.0938C105 31.4062 105.562 29.9688 106.688 28.7812C107.875 27.5937 109.312 27 111 27H123C124.625 27 126.031 27.5937 127.219 28.7812C128.406 29.9688 129 31.375 129 33C129 34.6875 129.562 36.125 130.688 37.3125C131.875 38.4375 133.312 39 135 39C136.625 39 138.031 38.4375 139.219 37.3125C140.406 36.125 141 34.6875 141 33V33.0938C141 31.4062 141.562 29.9688 142.688 28.7812C143.875 27.5937 145.312 27 147 27H165C168.312 27 171.125 28.1875 173.438 30.5625C175.813 32.9375 177 35.75 177 39V45C177 46.6875 176.406 48.125 175.219 49.3125C174.031 50.4375 172.625 51 171 51H123C121.312 51 119.875 51.5937 118.688 52.7812C117.562 53.9688 117 55.375 117 57V69C117 70.6875 116.406 72.125 115.219 73.3125C114.031 74.4375 112.625 75 111 75Z"/>
<path d="M195 75C191.625 75 188.781 73.8437 186.469 71.5312C184.156 69.1562 183 66.3125 183 63V33.0938C183 31.4062 183.562 29.9688 184.688 28.7812C185.875 27.5937 187.312 27 189 27H201C202.625 27 204.031 27.5937 205.219 28.7812C206.406 29.9688 207 31.375 207 33V51C207 52.6875 207.562 54.125 208.688 55.3125C209.875 56.4375 211.312 57 213 57H237C238.625 57 240.031 56.4375 241.219 55.3125C242.406 54.125 243 52.6875 243 51V33.0938C243 31.4062 243.562 29.9688 244.688 28.7812C245.875 27.5937 247.312 27 249 27H261C262.625 27 264.031 27.5937 265.219 28.7812C266.406 29.9688 267 31.375 267 33V63C267 66.375 265.813 69.2188 263.438 71.5312C261.062 73.8437 258.25 75 255 75H195Z"/>
<path d="M285 75C281.625 75 278.781 73.8437 276.469 71.5312C274.156 69.1562 273 66.3125 273 63V39C273 37.375 273.562 35.9688 274.688 34.7812C275.875 33.5937 277.312 33 279 33H291C292.625 33 294.031 33.5937 295.219 34.7812C296.406 35.9688 297 37.375 297 39V69C297 70.6875 296.406 72.125 295.219 73.3125C294.031 74.4375 292.625 75 291 75H285ZM279 27C277.312 27 275.875 26.4375 274.688 25.3125C273.562 24.125 273 22.6875 273 21C273 19.375 273.562 17.9688 274.688 16.7812C275.875 15.5937 277.312 15 279 15H291C292.625 15 294.031 15.5937 295.219 16.7812C296.406 17.9688 297 19.375 297 21C297 22.6875 296.406 24.125 295.219 25.3125C294.031 26.4375 292.625 27 291 27H279Z"/>
<path d="M327 75C323.625 75 320.781 73.8437 318.469 71.5312C316.156 69.1562 315 66.3125 315 63V45C315 43.375 314.406 41.9688 313.219 40.7812C312.031 39.5937 310.625 39 309 39C307.312 39 305.875 38.4375 304.688 37.3125C303.562 36.125 303 34.6875 303 33C303 31.375 303.562 29.9688 304.688 28.7812C305.875 27.5937 307.312 27 309 27C310.625 27 312.031 26.4375 313.219 25.3125C314.406 24.125 315 22.6875 315 21V21.0938C315 19.4062 315.562 17.9688 316.688 16.7812C317.875 15.5937 319.312 15 321 15H333C334.625 15 336.031 15.5937 337.219 16.7812C338.406 17.9688 339 19.375 339 21C339 22.6875 339.562 24.125 340.688 25.3125C341.875 26.4375 343.312 27 345 27H369C370.625 27 372.031 27.5937 373.219 28.7812C374.406 29.9688 375 31.375 375 33C375 34.6875 374.406 36.125 373.219 37.3125C372.031 38.4375 370.625 39 369 39H333C331.312 39 329.875 39.5937 328.688 40.7812C327.562 41.9688 327 43.375 327 45C327 46.6875 327.562 48.125 328.688 49.3125C329.875 50.4375 331.312 51 333 51H369C370.625 51 372.031 51.5937 373.219 52.7812C374.406 53.9688 375 55.375 375 57V63C375 66.375 373.813 69.2188 371.438 71.5312C369.062 73.8437 366.25 75 363 75H327Z"/>
</mask>
<path d="M27 75C23.625 75 20.7812 73.8437 18.4688 71.5312C16.1563 69.1562 15 66.3125 15 63V27C15 23.6875 16.1563 20.875 18.4688 18.5625C20.8438 16.1875 23.6875 15 27 15H87C90.3125 15 93.125 16.1875 95.4375 18.5625C97.8125 20.9375 99 23.75 99 27C99 30.375 97.8125 33.2188 95.4375 35.5312C93.0625 37.8437 90.25 39 87 39H30C29.125 39 28.4062 39.3125 27.8438 39.9375C27.2812 40.5 27 41.1875 27 42C27 42.875 27.2812 43.5938 27.8438 44.1562C28.4062 44.7188 29.125 45 30 45H93C94.625 45 96.0312 45.5937 97.2188 46.7812C98.4063 47.9688 99 49.375 99 51C99 52.6875 98.4063 54.125 97.2188 55.3125C96.0312 56.4375 94.625 57 93 57H45C43.3125 57 41.875 57.5937 40.6875 58.7812C39.5625 59.9688 39 61.375 39 63V69C39 70.6875 38.4063 72.125 37.2188 73.3125C36.0312 74.4375 34.625 75 33 75H27Z" fill="#EC6F9D"/>
<path d="M111 75C109.312 75 107.875 74.4375 106.688 73.3125C105.562 72.125 105 70.6875 105 69V33.0938C105 31.4062 105.562 29.9688 106.688 28.7812C107.875 27.5937 109.312 27 111 27H123C124.625 27 126.031 27.5937 127.219 28.7812C128.406 29.9688 129 31.375 129 33C129 34.6875 129.562 36.125 130.688 37.3125C131.875 38.4375 133.312 39 135 39C136.625 39 138.031 38.4375 139.219 37.3125C140.406 36.125 141 34.6875 141 33V33.0938C141 31.4062 141.562 29.9688 142.688 28.7812C143.875 27.5937 145.312 27 147 27H165C168.312 27 171.125 28.1875 173.438 30.5625C175.813 32.9375 177 35.75 177 39V45C177 46.6875 176.406 48.125 175.219 49.3125C174.031 50.4375 172.625 51 171 51H123C121.312 51 119.875 51.5937 118.688 52.7812C117.562 53.9688 117 55.375 117 57V69C117 70.6875 116.406 72.125 115.219 73.3125C114.031 74.4375 112.625 75 111 75Z" fill="#EC6F9D"/>
<path d="M195 75C191.625 75 188.781 73.8437 186.469 71.5312C184.156 69.1562 183 66.3125 183 63V33.0938C183 31.4062 183.562 29.9688 184.688 28.7812C185.875 27.5937 187.312 27 189 27H201C202.625 27 204.031 27.5937 205.219 28.7812C206.406 29.9688 207 31.375 207 33V51C207 52.6875 207.562 54.125 208.688 55.3125C209.875 56.4375 211.312 57 213 57H237C238.625 57 240.031 56.4375 241.219 55.3125C242.406 54.125 243 52.6875 243 51V33.0938C243 31.4062 243.562 29.9688 244.688 28.7812C245.875 27.5937 247.312 27 249 27H261C262.625 27 264.031 27.5937 265.219 28.7812C266.406 29.9688 267 31.375 267 33V63C267 66.375 265.813 69.2188 263.438 71.5312C261.062 73.8437 258.25 75 255 75H195Z" fill="#EC6F9D"/>
<path d="M285 75C281.625 75 278.781 73.8437 276.469 71.5312C274.156 69.1562 273 66.3125 273 63V39C273 37.375 273.562 35.9688 274.688 34.7812C275.875 33.5937 277.312 33 279 33H291C292.625 33 294.031 33.5937 295.219 34.7812C296.406 35.9688 297 37.375 297 39V69C297 70.6875 296.406 72.125 295.219 73.3125C294.031 74.4375 292.625 75 291 75H285ZM279 27C277.312 27 275.875 26.4375 274.688 25.3125C273.562 24.125 273 22.6875 273 21C273 19.375 273.562 17.9688 274.688 16.7812C275.875 15.5937 277.312 15 279 15H291C292.625 15 294.031 15.5937 295.219 16.7812C296.406 17.9688 297 19.375 297 21C297 22.6875 296.406 24.125 295.219 25.3125C294.031 26.4375 292.625 27 291 27H279Z" fill="#EC6F9D"/>
<path d="M327 75C323.625 75 320.781 73.8437 318.469 71.5312C316.156 69.1562 315 66.3125 315 63V45C315 43.375 314.406 41.9688 313.219 40.7812C312.031 39.5937 310.625 39 309 39C307.312 39 305.875 38.4375 304.688 37.3125C303.562 36.125 303 34.6875 303 33C303 31.375 303.562 29.9688 304.688 28.7812C305.875 27.5937 307.312 27 309 27C310.625 27 312.031 26.4375 313.219 25.3125C314.406 24.125 315 22.6875 315 21V21.0938C315 19.4062 315.562 17.9688 316.688 16.7812C317.875 15.5937 319.312 15 321 15H333C334.625 15 336.031 15.5937 337.219 16.7812C338.406 17.9688 339 19.375 339 21C339 22.6875 339.562 24.125 340.688 25.3125C341.875 26.4375 343.312 27 345 27H369C370.625 27 372.031 27.5937 373.219 28.7812C374.406 29.9688 375 31.375 375 33C375 34.6875 374.406 36.125 373.219 37.3125C372.031 38.4375 370.625 39 369 39H333C331.312 39 329.875 39.5937 328.688 40.7812C327.562 41.9688 327 43.375 327 45C327 46.6875 327.562 48.125 328.688 49.3125C329.875 50.4375 331.312 51 333 51H369C370.625 51 372.031 51.5937 373.219 52.7812C374.406 53.9688 375 55.375 375 57V63C375 66.375 373.813 69.2188 371.438 71.5312C369.062 73.8437 366.25 75 363 75H327Z" fill="#EC6F9D"/>
<path d="M27 75C23.625 75 20.7812 73.8437 18.4688 71.5312C16.1563 69.1562 15 66.3125 15 63V27C15 23.6875 16.1563 20.875 18.4688 18.5625C20.8438 16.1875 23.6875 15 27 15H87C90.3125 15 93.125 16.1875 95.4375 18.5625C97.8125 20.9375 99 23.75 99 27C99 30.375 97.8125 33.2188 95.4375 35.5312C93.0625 37.8437 90.25 39 87 39H30C29.125 39 28.4062 39.3125 27.8438 39.9375C27.2812 40.5 27 41.1875 27 42C27 42.875 27.2812 43.5938 27.8438 44.1562C28.4062 44.7188 29.125 45 30 45H93C94.625 45 96.0312 45.5937 97.2188 46.7812C98.4063 47.9688 99 49.375 99 51C99 52.6875 98.4063 54.125 97.2188 55.3125C96.0312 56.4375 94.625 57 93 57H45C43.3125 57 41.875 57.5937 40.6875 58.7812C39.5625 59.9688 39 61.375 39 63V69C39 70.6875 38.4063 72.125 37.2188 73.3125C36.0312 74.4375 34.625 75 33 75H27Z" stroke="white" stroke-width="30" mask="url(#path-3-outside-3_43_1917)"/>
<path d="M111 75C109.312 75 107.875 74.4375 106.688 73.3125C105.562 72.125 105 70.6875 105 69V33.0938C105 31.4062 105.562 29.9688 106.688 28.7812C107.875 27.5937 109.312 27 111 27H123C124.625 27 126.031 27.5937 127.219 28.7812C128.406 29.9688 129 31.375 129 33C129 34.6875 129.562 36.125 130.688 37.3125C131.875 38.4375 133.312 39 135 39C136.625 39 138.031 38.4375 139.219 37.3125C140.406 36.125 141 34.6875 141 33V33.0938C141 31.4062 141.562 29.9688 142.688 28.7812C143.875 27.5937 145.312 27 147 27H165C168.312 27 171.125 28.1875 173.438 30.5625C175.813 32.9375 177 35.75 177 39V45C177 46.6875 176.406 48.125 175.219 49.3125C174.031 50.4375 172.625 51 171 51H123C121.312 51 119.875 51.5937 118.688 52.7812C117.562 53.9688 117 55.375 117 57V69C117 70.6875 116.406 72.125 115.219 73.3125C114.031 74.4375 112.625 75 111 75Z" stroke="white" stroke-width="30" mask="url(#path-3-outside-3_43_1917)"/>
<path d="M195 75C191.625 75 188.781 73.8437 186.469 71.5312C184.156 69.1562 183 66.3125 183 63V33.0938C183 31.4062 183.562 29.9688 184.688 28.7812C185.875 27.5937 187.312 27 189 27H201C202.625 27 204.031 27.5937 205.219 28.7812C206.406 29.9688 207 31.375 207 33V51C207 52.6875 207.562 54.125 208.688 55.3125C209.875 56.4375 211.312 57 213 57H237C238.625 57 240.031 56.4375 241.219 55.3125C242.406 54.125 243 52.6875 243 51V33.0938C243 31.4062 243.562 29.9688 244.688 28.7812C245.875 27.5937 247.312 27 249 27H261C262.625 27 264.031 27.5937 265.219 28.7812C266.406 29.9688 267 31.375 267 33V63C267 66.375 265.813 69.2188 263.438 71.5312C261.062 73.8437 258.25 75 255 75H195Z" stroke="white" stroke-width="30" mask="url(#path-3-outside-3_43_1917)"/>
<path d="M285 75C281.625 75 278.781 73.8437 276.469 71.5312C274.156 69.1562 273 66.3125 273 63V39C273 37.375 273.562 35.9688 274.688 34.7812C275.875 33.5937 277.312 33 279 33H291C292.625 33 294.031 33.5937 295.219 34.7812C296.406 35.9688 297 37.375 297 39V69C297 70.6875 296.406 72.125 295.219 73.3125C294.031 74.4375 292.625 75 291 75H285ZM279 27C277.312 27 275.875 26.4375 274.688 25.3125C273.562 24.125 273 22.6875 273 21C273 19.375 273.562 17.9688 274.688 16.7812C275.875 15.5937 277.312 15 279 15H291C292.625 15 294.031 15.5937 295.219 16.7812C296.406 17.9688 297 19.375 297 21C297 22.6875 296.406 24.125 295.219 25.3125C294.031 26.4375 292.625 27 291 27H279Z" stroke="white" stroke-width="30" mask="url(#path-3-outside-3_43_1917)"/>
<path d="M327 75C323.625 75 320.781 73.8437 318.469 71.5312C316.156 69.1562 315 66.3125 315 63V45C315 43.375 314.406 41.9688 313.219 40.7812C312.031 39.5937 310.625 39 309 39C307.312 39 305.875 38.4375 304.688 37.3125C303.562 36.125 303 34.6875 303 33C303 31.375 303.562 29.9688 304.688 28.7812C305.875 27.5937 307.312 27 309 27C310.625 27 312.031 26.4375 313.219 25.3125C314.406 24.125 315 22.6875 315 21V21.0938C315 19.4062 315.562 17.9688 316.688 16.7812C317.875 15.5937 319.312 15 321 15H333C334.625 15 336.031 15.5937 337.219 16.7812C338.406 17.9688 339 19.375 339 21C339 22.6875 339.562 24.125 340.688 25.3125C341.875 26.4375 343.312 27 345 27H369C370.625 27 372.031 27.5937 373.219 28.7812C374.406 29.9688 375 31.375 375 33C375 34.6875 374.406 36.125 373.219 37.3125C372.031 38.4375 370.625 39 369 39H333C331.312 39 329.875 39.5937 328.688 40.7812C327.562 41.9688 327 43.375 327 45C327 46.6875 327.562 48.125 328.688 49.3125C329.875 50.4375 331.312 51 333 51H369C370.625 51 372.031 51.5937 373.219 52.7812C374.406 53.9688 375 55.375 375 57V63C375 66.375 373.813 69.2188 371.438 71.5312C369.062 73.8437 366.25 75 363 75H327Z" stroke="white" stroke-width="30" mask="url(#path-3-outside-3_43_1917)"/>
<mask id="path-4-outside-4_43_1917" maskUnits="userSpaceOnUse" x="6" y="6" width="378" height="78" fill="black">
<rect fill="white" x="6" y="6" width="378" height="78"/>
<path d="M27 75C23.625 75 20.7812 73.8437 18.4688 71.5312C16.1563 69.1562 15 66.3125 15 63V27C15 23.6875 16.1563 20.875 18.4688 18.5625C20.8438 16.1875 23.6875 15 27 15H87C90.3125 15 93.125 16.1875 95.4375 18.5625C97.8125 20.9375 99 23.75 99 27C99 30.375 97.8125 33.2188 95.4375 35.5312C93.0625 37.8437 90.25 39 87 39H30C29.125 39 28.4062 39.3125 27.8438 39.9375C27.2812 40.5 27 41.1875 27 42C27 42.875 27.2812 43.5938 27.8438 44.1562C28.4062 44.7188 29.125 45 30 45H93C94.625 45 96.0312 45.5937 97.2188 46.7812C98.4063 47.9688 99 49.375 99 51C99 52.6875 98.4063 54.125 97.2188 55.3125C96.0312 56.4375 94.625 57 93 57H45C43.3125 57 41.875 57.5937 40.6875 58.7812C39.5625 59.9688 39 61.375 39 63V69C39 70.6875 38.4063 72.125 37.2188 73.3125C36.0312 74.4375 34.625 75 33 75H27Z"/>
<path d="M111 75C109.312 75 107.875 74.4375 106.688 73.3125C105.562 72.125 105 70.6875 105 69V33.0938C105 31.4062 105.562 29.9688 106.688 28.7812C107.875 27.5937 109.312 27 111 27H123C124.625 27 126.031 27.5937 127.219 28.7812C128.406 29.9688 129 31.375 129 33C129 34.6875 129.562 36.125 130.688 37.3125C131.875 38.4375 133.312 39 135 39C136.625 39 138.031 38.4375 139.219 37.3125C140.406 36.125 141 34.6875 141 33V33.0938C141 31.4062 141.562 29.9688 142.688 28.7812C143.875 27.5937 145.312 27 147 27H165C168.312 27 171.125 28.1875 173.438 30.5625C175.813 32.9375 177 35.75 177 39V45C177 46.6875 176.406 48.125 175.219 49.3125C174.031 50.4375 172.625 51 171 51H123C121.312 51 119.875 51.5937 118.688 52.7812C117.562 53.9688 117 55.375 117 57V69C117 70.6875 116.406 72.125 115.219 73.3125C114.031 74.4375 112.625 75 111 75Z"/>
<path d="M195 75C191.625 75 188.781 73.8437 186.469 71.5312C184.156 69.1562 183 66.3125 183 63V33.0938C183 31.4062 183.562 29.9688 184.688 28.7812C185.875 27.5937 187.312 27 189 27H201C202.625 27 204.031 27.5937 205.219 28.7812C206.406 29.9688 207 31.375 207 33V51C207 52.6875 207.562 54.125 208.688 55.3125C209.875 56.4375 211.312 57 213 57H237C238.625 57 240.031 56.4375 241.219 55.3125C242.406 54.125 243 52.6875 243 51V33.0938C243 31.4062 243.562 29.9688 244.688 28.7812C245.875 27.5937 247.312 27 249 27H261C262.625 27 264.031 27.5937 265.219 28.7812C266.406 29.9688 267 31.375 267 33V63C267 66.375 265.813 69.2188 263.438 71.5312C261.062 73.8437 258.25 75 255 75H195Z"/>
<path d="M285 75C281.625 75 278.781 73.8437 276.469 71.5312C274.156 69.1562 273 66.3125 273 63V39C273 37.375 273.562 35.9688 274.688 34.7812C275.875 33.5937 277.312 33 279 33H291C292.625 33 294.031 33.5937 295.219 34.7812C296.406 35.9688 297 37.375 297 39V69C297 70.6875 296.406 72.125 295.219 73.3125C294.031 74.4375 292.625 75 291 75H285ZM279 27C277.312 27 275.875 26.4375 274.688 25.3125C273.562 24.125 273 22.6875 273 21C273 19.375 273.562 17.9688 274.688 16.7812C275.875 15.5937 277.312 15 279 15H291C292.625 15 294.031 15.5937 295.219 16.7812C296.406 17.9688 297 19.375 297 21C297 22.6875 296.406 24.125 295.219 25.3125C294.031 26.4375 292.625 27 291 27H279Z"/>
<path d="M327 75C323.625 75 320.781 73.8437 318.469 71.5312C316.156 69.1562 315 66.3125 315 63V45C315 43.375 314.406 41.9688 313.219 40.7812C312.031 39.5937 310.625 39 309 39C307.312 39 305.875 38.4375 304.688 37.3125C303.562 36.125 303 34.6875 303 33C303 31.375 303.562 29.9688 304.688 28.7812C305.875 27.5937 307.312 27 309 27C310.625 27 312.031 26.4375 313.219 25.3125C314.406 24.125 315 22.6875 315 21V21.0938C315 19.4062 315.562 17.9688 316.688 16.7812C317.875 15.5937 319.312 15 321 15H333C334.625 15 336.031 15.5937 337.219 16.7812C338.406 17.9688 339 19.375 339 21C339 22.6875 339.562 24.125 340.688 25.3125C341.875 26.4375 343.312 27 345 27H369C370.625 27 372.031 27.5937 373.219 28.7812C374.406 29.9688 375 31.375 375 33C375 34.6875 374.406 36.125 373.219 37.3125C372.031 38.4375 370.625 39 369 39H333C331.312 39 329.875 39.5937 328.688 40.7812C327.562 41.9688 327 43.375 327 45C327 46.6875 327.562 48.125 328.688 49.3125C329.875 50.4375 331.312 51 333 51H369C370.625 51 372.031 51.5937 373.219 52.7812C374.406 53.9688 375 55.375 375 57V63C375 66.375 373.813 69.2188 371.438 71.5312C369.062 73.8437 366.25 75 363 75H327Z"/>
</mask>
<path d="M27 75C23.625 75 20.7812 73.8437 18.4688 71.5312C16.1563 69.1562 15 66.3125 15 63V27C15 23.6875 16.1563 20.875 18.4688 18.5625C20.8438 16.1875 23.6875 15 27 15H87C90.3125 15 93.125 16.1875 95.4375 18.5625C97.8125 20.9375 99 23.75 99 27C99 30.375 97.8125 33.2188 95.4375 35.5312C93.0625 37.8437 90.25 39 87 39H30C29.125 39 28.4062 39.3125 27.8438 39.9375C27.2812 40.5 27 41.1875 27 42C27 42.875 27.2812 43.5938 27.8438 44.1562C28.4062 44.7188 29.125 45 30 45H93C94.625 45 96.0312 45.5937 97.2188 46.7812C98.4063 47.9688 99 49.375 99 51C99 52.6875 98.4063 54.125 97.2188 55.3125C96.0312 56.4375 94.625 57 93 57H45C43.3125 57 41.875 57.5937 40.6875 58.7812C39.5625 59.9688 39 61.375 39 63V69C39 70.6875 38.4063 72.125 37.2188 73.3125C36.0312 74.4375 34.625 75 33 75H27Z" fill="#EC6F9D"/>
<path d="M111 75C109.312 75 107.875 74.4375 106.688 73.3125C105.562 72.125 105 70.6875 105 69V33.0938C105 31.4062 105.562 29.9688 106.688 28.7812C107.875 27.5937 109.312 27 111 27H123C124.625 27 126.031 27.5937 127.219 28.7812C128.406 29.9688 129 31.375 129 33C129 34.6875 129.562 36.125 130.688 37.3125C131.875 38.4375 133.312 39 135 39C136.625 39 138.031 38.4375 139.219 37.3125C140.406 36.125 141 34.6875 141 33V33.0938C141 31.4062 141.562 29.9688 142.688 28.7812C143.875 27.5937 145.312 27 147 27H165C168.312 27 171.125 28.1875 173.438 30.5625C175.813 32.9375 177 35.75 177 39V45C177 46.6875 176.406 48.125 175.219 49.3125C174.031 50.4375 172.625 51 171 51H123C121.312 51 119.875 51.5937 118.688 52.7812C117.562 53.9688 117 55.375 117 57V69C117 70.6875 116.406 72.125 115.219 73.3125C114.031 74.4375 112.625 75 111 75Z" fill="#EC6F9D"/>
<path d="M195 75C191.625 75 188.781 73.8437 186.469 71.5312C184.156 69.1562 183 66.3125 183 63V33.0938C183 31.4062 183.562 29.9688 184.688 28.7812C185.875 27.5937 187.312 27 189 27H201C202.625 27 204.031 27.5937 205.219 28.7812C206.406 29.9688 207 31.375 207 33V51C207 52.6875 207.562 54.125 208.688 55.3125C209.875 56.4375 211.312 57 213 57H237C238.625 57 240.031 56.4375 241.219 55.3125C242.406 54.125 243 52.6875 243 51V33.0938C243 31.4062 243.562 29.9688 244.688 28.7812C245.875 27.5937 247.312 27 249 27H261C262.625 27 264.031 27.5937 265.219 28.7812C266.406 29.9688 267 31.375 267 33V63C267 66.375 265.813 69.2188 263.438 71.5312C261.062 73.8437 258.25 75 255 75H195Z" fill="#EC6F9D"/>
<path d="M285 75C281.625 75 278.781 73.8437 276.469 71.5312C274.156 69.1562 273 66.3125 273 63V39C273 37.375 273.562 35.9688 274.688 34.7812C275.875 33.5937 277.312 33 279 33H291C292.625 33 294.031 33.5937 295.219 34.7812C296.406 35.9688 297 37.375 297 39V69C297 70.6875 296.406 72.125 295.219 73.3125C294.031 74.4375 292.625 75 291 75H285ZM279 27C277.312 27 275.875 26.4375 274.688 25.3125C273.562 24.125 273 22.6875 273 21C273 19.375 273.562 17.9688 274.688 16.7812C275.875 15.5937 277.312 15 279 15H291C292.625 15 294.031 15.5937 295.219 16.7812C296.406 17.9688 297 19.375 297 21C297 22.6875 296.406 24.125 295.219 25.3125C294.031 26.4375 292.625 27 291 27H279Z" fill="#EC6F9D"/>
<path d="M327 75C323.625 75 320.781 73.8437 318.469 71.5312C316.156 69.1562 315 66.3125 315 63V45C315 43.375 314.406 41.9688 313.219 40.7812C312.031 39.5937 310.625 39 309 39C307.312 39 305.875 38.4375 304.688 37.3125C303.562 36.125 303 34.6875 303 33C303 31.375 303.562 29.9688 304.688 28.7812C305.875 27.5937 307.312 27 309 27C310.625 27 312.031 26.4375 313.219 25.3125C314.406 24.125 315 22.6875 315 21V21.0938C315 19.4062 315.562 17.9688 316.688 16.7812C317.875 15.5937 319.312 15 321 15H333C334.625 15 336.031 15.5937 337.219 16.7812C338.406 17.9688 339 19.375 339 21C339 22.6875 339.562 24.125 340.688 25.3125C341.875 26.4375 343.312 27 345 27H369C370.625 27 372.031 27.5937 373.219 28.7812C374.406 29.9688 375 31.375 375 33C375 34.6875 374.406 36.125 373.219 37.3125C372.031 38.4375 370.625 39 369 39H333C331.312 39 329.875 39.5937 328.688 40.7812C327.562 41.9688 327 43.375 327 45C327 46.6875 327.562 48.125 328.688 49.3125C329.875 50.4375 331.312 51 333 51H369C370.625 51 372.031 51.5937 373.219 52.7812C374.406 53.9688 375 55.375 375 57V63C375 66.375 373.813 69.2188 371.438 71.5312C369.062 73.8437 366.25 75 363 75H327Z" fill="#EC6F9D"/>
<path d="M27 75C23.625 75 20.7812 73.8437 18.4688 71.5312C16.1563 69.1562 15 66.3125 15 63V27C15 23.6875 16.1563 20.875 18.4688 18.5625C20.8438 16.1875 23.6875 15 27 15H87C90.3125 15 93.125 16.1875 95.4375 18.5625C97.8125 20.9375 99 23.75 99 27C99 30.375 97.8125 33.2188 95.4375 35.5312C93.0625 37.8437 90.25 39 87 39H30C29.125 39 28.4062 39.3125 27.8438 39.9375C27.2812 40.5 27 41.1875 27 42C27 42.875 27.2812 43.5938 27.8438 44.1562C28.4062 44.7188 29.125 45 30 45H93C94.625 45 96.0312 45.5937 97.2188 46.7812C98.4063 47.9688 99 49.375 99 51C99 52.6875 98.4063 54.125 97.2188 55.3125C96.0312 56.4375 94.625 57 93 57H45C43.3125 57 41.875 57.5937 40.6875 58.7812C39.5625 59.9688 39 61.375 39 63V69C39 70.6875 38.4063 72.125 37.2188 73.3125C36.0312 74.4375 34.625 75 33 75H27Z" stroke="#44082A" stroke-width="18" mask="url(#path-4-outside-4_43_1917)"/>
<path d="M111 75C109.312 75 107.875 74.4375 106.688 73.3125C105.562 72.125 105 70.6875 105 69V33.0938C105 31.4062 105.562 29.9688 106.688 28.7812C107.875 27.5937 109.312 27 111 27H123C124.625 27 126.031 27.5937 127.219 28.7812C128.406 29.9688 129 31.375 129 33C129 34.6875 129.562 36.125 130.688 37.3125C131.875 38.4375 133.312 39 135 39C136.625 39 138.031 38.4375 139.219 37.3125C140.406 36.125 141 34.6875 141 33V33.0938C141 31.4062 141.562 29.9688 142.688 28.7812C143.875 27.5937 145.312 27 147 27H165C168.312 27 171.125 28.1875 173.438 30.5625C175.813 32.9375 177 35.75 177 39V45C177 46.6875 176.406 48.125 175.219 49.3125C174.031 50.4375 172.625 51 171 51H123C121.312 51 119.875 51.5937 118.688 52.7812C117.562 53.9688 117 55.375 117 57V69C117 70.6875 116.406 72.125 115.219 73.3125C114.031 74.4375 112.625 75 111 75Z" stroke="#44082A" stroke-width="18" mask="url(#path-4-outside-4_43_1917)"/>
<path d="M195 75C191.625 75 188.781 73.8437 186.469 71.5312C184.156 69.1562 183 66.3125 183 63V33.0938C183 31.4062 183.562 29.9688 184.688 28.7812C185.875 27.5937 187.312 27 189 27H201C202.625 27 204.031 27.5937 205.219 28.7812C206.406 29.9688 207 31.375 207 33V51C207 52.6875 207.562 54.125 208.688 55.3125C209.875 56.4375 211.312 57 213 57H237C238.625 57 240.031 56.4375 241.219 55.3125C242.406 54.125 243 52.6875 243 51V33.0938C243 31.4062 243.562 29.9688 244.688 28.7812C245.875 27.5937 247.312 27 249 27H261C262.625 27 264.031 27.5937 265.219 28.7812C266.406 29.9688 267 31.375 267 33V63C267 66.375 265.813 69.2188 263.438 71.5312C261.062 73.8437 258.25 75 255 75H195Z" stroke="#44082A" stroke-width="18" mask="url(#path-4-outside-4_43_1917)"/>
<path d="M285 75C281.625 75 278.781 73.8437 276.469 71.5312C274.156 69.1562 273 66.3125 273 63V39C273 37.375 273.562 35.9688 274.688 34.7812C275.875 33.5937 277.312 33 279 33H291C292.625 33 294.031 33.5937 295.219 34.7812C296.406 35.9688 297 37.375 297 39V69C297 70.6875 296.406 72.125 295.219 73.3125C294.031 74.4375 292.625 75 291 75H285ZM279 27C277.312 27 275.875 26.4375 274.688 25.3125C273.562 24.125 273 22.6875 273 21C273 19.375 273.562 17.9688 274.688 16.7812C275.875 15.5937 277.312 15 279 15H291C292.625 15 294.031 15.5937 295.219 16.7812C296.406 17.9688 297 19.375 297 21C297 22.6875 296.406 24.125 295.219 25.3125C294.031 26.4375 292.625 27 291 27H279Z" stroke="#44082A" stroke-width="18" mask="url(#path-4-outside-4_43_1917)"/>
<path d="M327 75C323.625 75 320.781 73.8437 318.469 71.5312C316.156 69.1562 315 66.3125 315 63V45C315 43.375 314.406 41.9688 313.219 40.7812C312.031 39.5937 310.625 39 309 39C307.312 39 305.875 38.4375 304.688 37.3125C303.562 36.125 303 34.6875 303 33C303 31.375 303.562 29.9688 304.688 28.7812C305.875 27.5937 307.312 27 309 27C310.625 27 312.031 26.4375 313.219 25.3125C314.406 24.125 315 22.6875 315 21V21.0938C315 19.4062 315.562 17.9688 316.688 16.7812C317.875 15.5937 319.312 15 321 15H333C334.625 15 336.031 15.5937 337.219 16.7812C338.406 17.9688 339 19.375 339 21C339 22.6875 339.562 24.125 340.688 25.3125C341.875 26.4375 343.312 27 345 27H369C370.625 27 372.031 27.5937 373.219 28.7812C374.406 29.9688 375 31.375 375 33C375 34.6875 374.406 36.125 373.219 37.3125C372.031 38.4375 370.625 39 369 39H333C331.312 39 329.875 39.5937 328.688 40.7812C327.562 41.9688 327 43.375 327 45C327 46.6875 327.562 48.125 328.688 49.3125C329.875 50.4375 331.312 51 333 51H369C370.625 51 372.031 51.5937 373.219 52.7812C374.406 53.9688 375 55.375 375 57V63C375 66.375 373.813 69.2188 371.438 71.5312C369.062 73.8437 366.25 75 363 75H327Z" stroke="#44082A" stroke-width="18" mask="url(#path-4-outside-4_43_1917)"/>
</svg>
